HIERARCHY
ROOT Hips
{
	OFFSET 0.00000 0.00000 0.00000
	CHANNELS 6 Xposition Yposition Zposition Zrotation Yrotation Xrotation 
	JOINT LHipJoint
	{
		OFFSET 0 0 0
		CHANNELS 3 Zrotation Yrotation Xrotation
		JOINT LeftUpLeg
		{
			OFFSET 1.62964 -1.40469 0.78906
			CHANNELS 3 Zrotation Yrotation Xrotation
			JOINT LeftLeg
			{
				OFFSET 2.29640 -6.30932 0.00000
				CHANNELS 3 Zrotation Yrotation Xrotation
				JOINT LeftFoot
				{
					OFFSET 2.29451 -6.30412 0.00000
					CHANNELS 3 Zrotation Yrotation Xrotation
					JOINT LeftToeBase
					{
						OFFSET 0.03611 -0.09921 1.56387
						CHANNELS 3 Zrotation Yrotation Xrotation
						End Site
						{
							OFFSET 0.00000 -0.00000 0.80291
						}
					}
				}
			}
		}
	}
	JOINT RHipJoint
	{
		OFFSET 0 0 0
		CHANNELS 3 Zrotation Yrotation Xrotation
		JOINT RightUpLeg
		{
			OFFSET -1.73712 -1.40469 0.78906
			CHANNELS 3 Zrotation Yrotation Xrotation
			JOINT RightLeg
			{
				OFFSET -2.28137 -6.26801 0.00000
				CHANNELS 3 Zrotation Yrotation Xrotation
				JOINT RightFoot
				{
					OFFSET -2.28681 -6.28298 0.00000
					CHANNELS 3 Zrotation Yrotation Xrotation
					JOINT RightToeBase
					{
						OFFSET -0.15927 -0.43759 1.61103
						CHANNELS 3 Zrotation Yrotation Xrotation
						End Site
						{
							OFFSET -0.00000 -0.00000 0.84630
						}
					}
				}
			}
		}
	}
	JOINT LowerBack
	{
		OFFSET 0 0 0
		CHANNELS 3 Zrotation Yrotation Xrotation
		JOINT Spine
		{
			OFFSET -0.04227 2.04338 -0.00225
			CHANNELS 3 Zrotation Yrotation Xrotation
			JOINT Spine1
			{
				OFFSET -0.02148 2.04482 -0.04273
				CHANNELS 3 Zrotation Yrotation Xrotation
				JOINT Neck
				{
					OFFSET 0 0 0
					CHANNELS 3 Zrotation Yrotation Xrotation
					JOINT Neck1
					{
						OFFSET 0.09180 1.44629 0.19359
						CHANNELS 3 Zrotation Yrotation Xrotation
						JOINT Head
						{
							OFFSET 0.00887 1.40645 0.14750
							CHANNELS 3 Zrotation Yrotation Xrotation
							End Site
							{
								OFFSET -0.00669 1.50671 0.03707
							}
						}
					}
				}
				JOINT LeftShoulder
				{
					OFFSET 0 0 0
					CHANNELS 3 Zrotation Yrotation Xrotation
					JOINT LeftArm
					{
						OFFSET 2.17674 1.86763 -0.06520
						CHANNELS 3 Zrotation Yrotation Xrotation
						JOINT LeftForeArm
						{
							OFFSET 4.65776 -0.00000 0.00000
							CHANNELS 3 Zrotation Yrotation Xrotation
							JOINT LeftHand
							{
								OFFSET 3.55539 -0.00000 0.00000
								CHANNELS 3 Zrotation Yrotation Xrotation
								JOINT LeftFingerBase
								{
									OFFSET 0 0 0
									CHANNELS 3 Zrotation Yrotation Xrotation
									JOINT LeftHandIndex1
									{
										OFFSET 0.70726 -0.00000 0.00000
										CHANNELS 3 Zrotation Yrotation Xrotation
										End Site
										{
											OFFSET 0.57022 -0.00000 0.00000
										}
									}
								}
								JOINT LThumb
								{
									OFFSET 0 0 0
									CHANNELS 3 Zrotation Yrotation Xrotation
									End Site
									{
										OFFSET 0.57892 -0.00000 0.57892
									}
								}
							}
						}
					}
				}
				JOINT RightShoulder
				{
					OFFSET 0 0 0
					CHANNELS 3 Zrotation Yrotation Xrotation
					JOINT RightArm
					{
						OFFSET -2.80694 1.55459 -0.32496
						CHANNELS 3 Zrotation Yrotation Xrotation
						JOINT RightForeArm
						{
							OFFSET -4.71925 -0.00000 -0.00000
							CHANNELS 3 Zrotation Yrotation Xrotation
							JOINT RightHand
							{
								OFFSET -3.56990 -0.00000 0.00000
								CHANNELS 3 Zrotation Yrotation Xrotation
								JOINT RightFingerBase
								{
									OFFSET 0 0 0
									CHANNELS 3 Zrotation Yrotation Xrotation
									JOINT RightHandIndex1
									{
										OFFSET -0.50776 -0.00000 0.00000
										CHANNELS 3 Zrotation Yrotation Xrotation
										End Site
										{
											OFFSET -0.40937 -0.00000 0.00000
										}
									}
								}
								JOINT RThumb
								{
									OFFSET 0 0 0
									CHANNELS 3 Zrotation Yrotation Xrotation
									End Site
									{
										OFFSET -0.41562 -0.00000 0.41562
									}
								}
							}
						}
					}
				}
			}
		}
	}
}
MOTION
Frames: 8
Frame Time: .0083333
9.1297 16.3229 31.6374 0 0 0 0 0 0 -21 0 0 0 0 0 0 0 0 0 0 0 0 0 0 21 0 0 0 0 0 0 0 0 0 0 0 0 0 0 0 0 0 0 0 0 0 0 -16 0 0 21 0 0 11 0 0 0 -8 0 0 0 0 0 0 0 0 0 0 0 0 0 0 0 0 0 0 0 0 8 0 0 0 0 0 0 0 0 0 0 0 0 0 0 0 0 0
9.1297 16.3229 31.6374 178.1860 -2.2385 -157.1520 0.0000 0.0000 0.0000 -19.2594 -17.9917 -18.2095 0.3803 3.9605 10.9655 0.2777 -1.5693 -9.5298 2.9669 -10.6413 -31.0795 0.0000 0.0000 0.0000 18.0390 13.8684 -18.0606 -0.2811 -3.4097 9.4216 -1.3181 0.2912 -21.6241 -2.6584 10.1204 -29.3675 -6.2028 -1.8644 -26.2930 -0.5497 -1.0106 -1.1544 2.5165 -1.0373 13.5250 -4.6055 0.0684 -0.2773 7.1238 -0.7356 8.9734 3.1575 -0.4643 3.0134 -0.0000 0.0000 0.0000 -85.8011 -0.1972 1.0654 6.1424 -10.4994 -0.5649 -0.0000 -0.0000 26.7354 18.9624 -12.0021 -4.0868 -7.1250 0.0000 -0.0000 -5.7380 17.3498 3.7850 -0.0000 0.0000 0.0000 90.7830 -4.8268 4.8721 -14.7332 23.7731 -3.1176 0.0000 0.0000 3.8232 -13.2495 -57.0215 11.1733 7.1250 -0.0000 -0.0000 83.1562 -76.7936 -69.5041
9.1430 16.3235 31.6275 178.1680 -2.4609 -157.3380 0.0000 0.0000 0.0000 -19.1855 -18.2608 -17.7891 0.3762 3.9394 10.9062 0.2885 -1.5404 -9.7236 2.7036 -10.1991 -29.6238 0.0000 0.0000 0.0000 18.1337 14.3421 -17.3715 -0.2607 -3.2846 9.0722 -1.2955 -0.5764 -21.7359 -2.6093 10.0339 -29.0866 -6.5574 -2.0060 -26.2411 -0.4512 -1.0823 -1.0296 2.8072 -1.0944 13.6608 -4.4366 0.0354 -0.2661 7.0552 -0.7598 8.7979 3.0978 -0.4691 2.9502 0.0000 -0.0000 0.0000 -85.7526 -0.2462 2.0660 6.1992 -10.5940 -0.5753 -0.0000 -0.0000 25.7776 18.7644 -11.9768 -4.0327 -7.1250 0.0000 -0.0000 -5.8757 17.3925 3.8712 0.0000 -0.0000 0.0000 90.6707 -4.6297 4.1332 -14.6558 23.6644 -3.0865 0.0000 0.0000 3.1147 -8.9296 -54.5984 7.2984 7.1250 -0.0000 -0.0000 73.9347 -74.9662 -58.4814
9.1268 16.3083 31.6453 178.2750 -2.1079 -156.5660 0.0000 0.0000 0.0000 -18.8942 -18.4366 -18.9210 0.3961 4.0409 11.1917 0.2919 -1.3567 -9.8204 2.6973 -10.1882 -29.5883 0.0000 0.0000 0.0000 17.8744 14.5393 -18.7495 -0.2943 -3.4886 9.6422 -1.3194 0.0005 -21.7305 -2.6039 10.0243 -29.0556 -6.3331 -1.8080 -26.8839 -0.4789 -0.8911 -1.2358 2.7094 -1.0095 13.7419 -4.3724 0.0082 -0.2544 7.0454 -0.7804 8.6438 3.0792 -0.4746 2.8960 0.0000 -0.0000 0.0000 -85.7654 -0.2947 2.4268 6.2418 -10.6648 -0.5832 -0.0000 -0.0000 25.5359 18.5797 -12.1377 -4.0428 -7.1250 0.0000 -0.0000 -6.0070 17.2397 3.9789 0.0000 -0.0000 0.0000 90.6887 -4.7160 4.8888 -14.8949 23.9994 -3.1831 0.0000 0.0000 3.3602 -8.2787 -57.4103 6.9893 7.1250 -0.0000 -0.0000 84.6000 -75.0322 -68.9806
9.1230 16.2990 31.6443 178.3380 -1.9830 -156.3200 0.0000 0.0000 0.0000 -18.7528 -18.7075 -19.0933 0.3940 4.0303 11.1619 0.2980 -1.0470 -9.9964 2.7116 -10.2128 -29.6686 0.0000 0.0000 0.0000 17.8441 14.6250 -19.0926 -0.3010 -3.5277 9.7515 -1.3312 0.2241 -21.7533 -2.5837 9.9885 -28.9395 -6.3026 -1.7312 -27.1731 -0.4662 -0.7962 -1.2856 2.7390 -0.9728 13.8300 -4.3423 -0.0148 -0.2543 7.0374 -0.7934 8.4928 3.0680 -0.4769 2.8452 -0.0000 -0.0000 0.0000 -85.7821 -0.2988 2.8401 6.2791 -10.7269 -0.5901 -0.0000 -0.0000 25.3010 18.4369 -12.8063 -4.2261 -7.1250 0.0000 -0.0000 -6.1179 16.5547 4.1450 -0.0000 -0.0000 0.0000 90.6978 -4.7338 5.0445 -14.9468 24.0719 -3.2042 0.0000 0.0000 3.3055 -7.2962 -59.0828 6.2684 7.1250 -0.0000 -0.0000 90.8025 -74.6367 -74.8864
9.1164 16.2821 31.6443 178.7240 -1.9702 -156.0160 0.0000 0.0000 0.0000 -18.2302 -18.2470 -19.7356 0.4030 4.0755 11.2891 0.2993 -1.3909 -9.9405 2.7147 -10.2182 -29.6862 0.0000 0.0000 0.0000 18.1789 14.8528 -19.4631 -0.3068 -3.5611 9.8449 -1.3296 0.4110 -21.6800 -2.5293 9.8909 -28.6241 -5.8512 -1.5988 -27.5295 -0.3706 -0.7689 -1.3643 2.5966 -0.9424 13.9227 -4.3523 -0.0190 -0.2262 7.0148 -0.7759 8.3094 3.0595 -0.4656 2.7765 0.0000 -0.0000 0.0000 -85.7952 -0.2926 3.5170 6.3200 -10.7949 -0.5977 -0.0000 -0.0000 24.6131 21.3172 -26.4546 -9.8619 -7.1250 0.0000 -0.0000 -5.1658 1.9713 5.0057 0.0000 -0.0000 0.0000 90.6571 -4.7468 4.9785 -14.8948 23.9994 -3.1830 0.0000 0.0000 2.9436 -4.8232 -60.1895 4.1874 7.1250 -0.0000 -0.0000 94.5252 -73.7101 -77.7813
9.1168 16.2807 31.6620 179.1600 -2.4145 -156.1500 0.0000 0.0000 0.0000 -17.6544 -17.7696 -20.0451 0.4214 4.1663 11.5450 0.2921 -2.0580 -9.7018 2.5843 -9.9897 -28.9433 0.0000 0.0000 0.0000 18.8440 14.8803 -19.2924 -0.3058 -3.5551 9.8283 -1.3171 0.1388 -21.6656 -2.5070 9.8506 -28.4943 -5.3666 -1.5917 -27.1200 -0.2165 -0.9429 -1.3903 2.4353 -0.9826 13.6818 -4.3788 -0.0357 -0.2587 7.0240 -0.7786 8.1638 3.0658 -0.4632 2.7341 -0.0000 0.0000 0.0000 -85.7769 -0.2737 4.3308 6.4298 -10.9771 -0.6185 -0.0000 -0.0000 23.6535 18.9602 -11.6735 -3.9764 -7.1250 0.0000 -0.0000 -5.7339 17.6937 3.7388 -0.0000 0.0000 0.0000 90.6590 -4.7104 4.6670 -14.7472 23.7928 -3.1233 0.0000 0.0000 2.5210 -6.3865 -58.2433 5.4366 7.1250 -0.0000 -0.0000 87.7351 -74.3745 -71.4210
9.1092 16.2764 31.6600 179.4880 -2.4903 -156.3120 0.0000 0.0000 0.0000 -17.3138 -17.7397 -19.8361 0.4141 4.1306 11.4444 0.2940 -1.9952 -9.7433 2.4678 -9.7792 -28.2645 0.0000 0.0000 0.0000 19.2742 14.7850 -19.1427 -0.3070 -3.5620 9.8477 -1.3112 0.1179 -21.6234 -2.5883 9.9967 -28.9660 -4.9231 -1.4649 -27.0226 -0.1729 -0.9092 -1.3411 2.2449 -0.9357 13.6793 -4.3206 -0.0634 -0.2469 7.0133 -0.8006 8.0119 3.0482 -0.4702 2.6813 0.0000 0.0000 0.0000 -85.7183 -0.2591 5.0674 6.5673 -11.2049 -0.6449 -0.0000 -0.0000 22.8902 18.9404 -11.9651 -4.0694 -7.1250 0.0000 -0.0000 -5.7527 17.3904 3.7896 0.0000 0.0000 0.0000 90.7050 -4.6862 4.4635 -14.6611 23.6719 -3.0886 0.0000 0.0000 2.2546 -8.0930 -55.9728 6.7212 7.1250 -0.0000 -0.0000 79.2342 -74.8738 -63.4776
